<svg width="24" height="24" viewBox="0 0 24 24" fill="none" xmlns="http://www.w3.org/2000/svg">
<circle cx="12" cy="12" r="12" fill="#FD982E"/>
<path d="M12.8224 4C13.7224 4.0024 14.1791 4.0072 14.5735 4.0184L14.7287 4.024C14.9079 4.0304 15.0847 4.0384 15.2983 4.048C16.1494 4.088 16.7302 4.22239 17.2398 4.41999C17.7678 4.62319 18.2125 4.89838 18.6573 5.34237C19.0643 5.74214 19.379 6.22592 19.5797 6.75993C19.7773 7.26952 19.9117 7.85031 19.9517 8.70229C19.9613 8.91508 19.9692 9.09188 19.9756 9.27187L19.9804 9.42707C19.9924 9.82066 19.9972 10.2774 19.9988 11.1774L19.9996 11.7742V12.8222C20.0016 13.4057 19.9955 13.9892 19.9812 14.5725L19.9764 14.7277C19.97 14.9077 19.962 15.0845 19.9525 15.2973C19.9125 16.1493 19.7765 16.7293 19.5797 17.2397C19.379 17.7737 19.0643 18.2575 18.6573 18.6572C18.2576 19.0642 17.7738 19.379 17.2398 19.5796C16.7302 19.7772 16.1494 19.9116 15.2983 19.9516L14.7287 19.9756L14.5735 19.9804C14.1791 19.9916 13.7224 19.9972 12.8224 19.9988L12.2256 19.9996H11.1785C10.5947 20.0017 10.011 19.9955 9.42738 19.9812L9.27219 19.9764C9.08229 19.9692 8.89243 19.961 8.70262 19.9516C7.85146 19.9116 7.27069 19.7772 6.76032 19.5796C6.22661 19.3789 5.74312 19.0641 5.34359 18.6572C4.93636 18.2575 4.62131 17.7738 4.42043 17.2397C4.22284 16.7301 4.08845 16.1493 4.04845 15.2973L4.02445 14.7277L4.02045 14.5725C4.00571 13.9892 3.99904 13.4057 4.00046 12.8222V11.1774C3.99824 10.5939 4.00411 10.0104 4.01805 9.42707L4.02365 9.27187C4.03005 9.09188 4.03805 8.91508 4.04765 8.70229C4.08765 7.85031 4.22204 7.27032 4.41963 6.75993C4.62098 6.2257 4.93659 5.74191 5.34439 5.34237C5.74369 4.93562 6.22689 4.62084 6.76032 4.41999C7.27069 4.22239 7.85066 4.088 8.70262 4.048C8.91541 4.0384 9.093 4.0304 9.27219 4.024L9.42738 4.0192C10.0107 4.00499 10.5942 3.99885 11.1777 4.0008L12.8224 4ZM12.0001 7.9999C10.9392 7.9999 9.92187 8.42132 9.17177 9.17145C8.42166 9.92158 8.00025 10.939 8.00025 11.9998C8.00025 13.0606 8.42166 14.078 9.17177 14.8282C9.92187 15.5783 10.9392 15.9997 12.0001 15.9997C13.0609 15.9997 14.0782 15.5783 14.8283 14.8282C15.5784 14.078 15.9998 13.0606 15.9998 11.9998C15.9998 10.939 15.5784 9.92158 14.8283 9.17145C14.0782 8.42132 13.0609 7.9999 12.0001 7.9999ZM12.0001 9.59986C12.3152 9.59981 12.6273 9.66184 12.9185 9.7824C13.2097 9.90296 13.4743 10.0797 13.6971 10.3025C13.92 10.5253 14.0968 10.7899 14.2175 11.081C14.3382 11.3722 14.4003 11.6842 14.4003 11.9994C14.4004 12.3146 14.3384 12.6267 14.2178 12.9179C14.0972 13.209 13.9205 13.4736 13.6977 13.6965C13.4749 13.9194 13.2104 14.0963 12.9192 14.2169C12.6281 14.3376 12.316 14.3997 12.0009 14.3997C11.3644 14.3997 10.7539 14.1469 10.3039 13.6968C9.85382 13.2467 9.60097 12.6363 9.60097 11.9998C9.60097 11.3633 9.85382 10.7529 10.3039 10.3028C10.7539 9.85271 11.3644 9.59986 12.0009 9.59986M16.2006 6.79993C15.9354 6.79993 15.6811 6.90529 15.4936 7.09282C15.306 7.28035 15.2007 7.5347 15.2007 7.79991C15.2007 8.06512 15.306 8.31947 15.4936 8.507C15.6811 8.69453 15.9354 8.79988 16.2006 8.79988C16.4658 8.79988 16.7202 8.69453 16.9077 8.507C17.0952 8.31947 17.2006 8.06512 17.2006 7.79991C17.2006 7.5347 17.0952 7.28035 16.9077 7.09282C16.7202 6.90529 16.4658 6.79993 16.2006 6.79993Z" fill="white"/>
</svg>
